<svg xmlns="http://www.w3.org/2000/svg" viewBox="0 0 64 64">
  <defs>
    <linearGradient id="g" x1="0" x2="1" y1="0" y2="1">
      <stop offset="0" stop-color="#10b981"/>
      <stop offset="1" stop-color="#d97706"/>
    </linearGradient>
  </defs>
  <rect width="64" height="64" rx="14" fill="url(#g)"/>
  <g transform="translate(12,14)">
    <path d="M8 24c0-6 5-10 12-10s12 4 12 10v2c0 3.866-6.268 7-14 7s-14-3.134-14-7v-2z" fill="#fff"/>
    <path d="M35 18h5a6 6 0 010 12h-5v-4h5a2 2 0 000-4h-5v-4z" fill="#fef3c7"/>
    <path d="M14 6c0 2 2 3 2 5s-2 3-2 5" stroke="#fefefe" stroke-width="2" fill="none" stroke-linecap="round"/>
  </g>
</svg>
